<?xml version="1.0" ?><svg xmlns="http://www.w3.org/2000/svg" id="Layer_1" data-name="Layer 1" viewBox="0 0 128 128"><defs><style>
      .cls-1 {
        fill-rule: evenodd;
        stroke-width: 0px;
      }
    </style></defs><path id="path" class="cls-1" d="m107.1,63.94v22.96c0,6.35-.47,18.37-11.95,18.37-6.98,0-8.13-3.39-9.03-6.05-.58-1.72-1.06-3.13-2.93-3.13-1.53,0-1.84,1.41-2.25,3.33-.88,4.08-2.26,10.45-16.89,10.45s-16-6.37-16.88-10.45c-.41-1.92-.71-3.33-2.25-3.33-1.77,0-1.98,1.26-2.24,2.85-.44,2.7-1.03,6.33-9.72,6.33-11.48,0-11.96-12.02-11.95-18.37v-22.96c0-22.82,19.27-41.32,43.04-41.32s43.05,18.5,43.05,41.32Zm-53.78.18c6,0,10.86-4.67,10.86-10.43s-4.86-10.43-10.86-10.43-10.87,4.67-10.87,10.43,4.87,10.43,10.87,10.43Z"/></svg>